<svg xmlns="http://www.w3.org/2000/svg" xml:space="preserve" id="_экспорт" x="0" y="0" style="enable-background:new 0 0 1083.7 1082.2" version="1.1" viewBox="0 0 1083.7 1082.2"><style>.st0{fill:#ebb845}.st1{fill:none}</style><path d="M661.9 357.4H506.8c-6.1 0-11 4.9-11 11V407h-.1l.1 86.1H458l.1-162.1h177.1l26.7 26.4z" class="st0"/><path d="M509.8 371.4h162.1V407H509.8zM492.5 679h-35.2V567l34.5 31.6zM618.6 588.5H501.5l-33.2-30.4h116.4zM630.4 553.9l-.3 26.1-35.7-32.1v-30.6zM626.7 742.7v31.6h-175l-32.1-32z" class="st0"/><path d="m663.1 693-32.5 35.7-221-.4v-356l34.5-32.2-.1 156c0 3 1.1 5.7 3.2 7.8 2.1 2.1 4.9 3.2 7.8 3.2h125.4V544H454.3c-6.1 0-11 5-11 11v127c0 6.1 4.9 11 11 11h208.8zM672.7 729.3l-32 34.3v-25.2l31.5-34.7z" class="st0"/><path d="M510.1 229.2c-64.6 0-124.9 18.5-176 50.4-60.6 59.6-98.6 142.2-99.7 233.5C232.2 697.3 381 849 565.1 850.3c65.5.4 126.6-18.1 178.4-50.4 61.5-60.5 99.7-144.6 99.7-237.5 0-183.7-149.4-333.2-333.1-333.2zM683.7 738 640 784.8c-2.1 2.2-5 3.5-8.1 3.5H450.5c-2.9 0-5.7-1.1-7.8-3.2l-43.8-43.7c-2.1-2.1-3.2-4.9-3.2-7.8V371c0-3 1.3-6 3.5-8.1l46-43c2-1.9 4.7-3 7.5-3h183.7c2.9 0 5.7 1.1 7.8 3.2l38.5 38c2.1 2.1 3.3 4.9 3.3 7.9v44c0 6.1-4.9 11-11 11H509.7l.1 72.1h75.9c2.9 0 5.8 1.2 7.9 3.3l47.7 48.5c2 2.1 3.2 5 3.2 7.9l-.5 38.8c-.1 6-5 10.9-11 10.9H505.8l.7 76.5h172.2c3.9 0 7.1 3.1 7.2 7.1l.8 44.2c.1 2.9-1 5.6-3 7.7zM567.4 864.3c-46.9 0-92.3-9.2-135.1-27.3-41.3-17.5-78.5-42.5-110.3-74.4-31.9-31.9-56.9-69-74.4-110.3-18.1-42.8-27.3-88.3-27.3-135.1s9.2-92.3 27.3-135.1c9.2-21.8 20.5-42.4 33.8-61.6C217.2 381 177.1 466.9 176.9 562c-.2 183.4 149.8 333.5 333.1 333.5 67.2 0 129.8-20 182.2-54.4-39.7 15.4-81.6 23.2-124.8 23.2zm0-680.3c-67.2 0-129.9 20-182.3 54.4 39.8-15.4 81.8-23.2 124.9-23.2 46.9 0 92.3 9.2 135.1 27.3 41.3 17.5 78.5 42.5 110.3 74.4s56.9 69 74.4 110.3c18.1 42.8 27.3 88.3 27.3 135.1s-9.2 92.3-27.3 135.1c-9.2 21.8-20.5 42.4-33.8 61.7 64.3-60.8 104.5-146.8 104.5-242C900.6 333.4 751.1 184 567.4 184zm0 0c-67.2 0-129.9 20-182.3 54.4 39.8-15.4 81.8-23.2 124.9-23.2 46.9 0 92.3 9.2 135.1 27.3 41.3 17.5 78.5 42.5 110.3 74.4s56.9 69 74.4 110.3c18.1 42.8 27.3 88.3 27.3 135.1s-9.2 92.3-27.3 135.1c-9.2 21.8-20.5 42.4-33.8 61.7 64.3-60.8 104.5-146.8 104.5-242C900.6 333.4 751.1 184 567.4 184zm-57.3 45.2c-64.6 0-124.9 18.5-176 50.4-60.6 59.6-98.6 142.2-99.7 233.5C232.2 697.3 381 849 565.1 850.3c65.5.4 126.6-18.1 178.4-50.4 61.5-60.5 99.7-144.6 99.7-237.5 0-183.7-149.4-333.2-333.1-333.2zM683.7 738 640 784.8c-2.1 2.2-5 3.5-8.1 3.5H450.5c-2.9 0-5.7-1.1-7.8-3.2l-43.8-43.7c-2.1-2.1-3.2-4.9-3.2-7.8V371c0-3 1.3-6 3.5-8.1l46-43c2-1.9 4.7-3 7.5-3h183.7c2.9 0 5.7 1.1 7.8 3.2l38.5 38c2.1 2.1 3.3 4.9 3.3 7.9v44c0 6.1-4.9 11-11 11H509.7l.1 72.1h75.9c2.9 0 5.8 1.2 7.9 3.3l47.7 48.5c2 2.1 3.2 5 3.2 7.9l-.5 38.8c-.1 6-5 10.9-11 10.9H505.8l.7 76.5h179.3l.9 51.3c.1 2.9-1 5.6-3 7.7zm-251.4 99c-41.3-17.5-78.5-42.5-110.3-74.4-31.9-31.9-56.9-69-74.4-110.3-18.1-42.8-27.3-88.3-27.3-135.1s9.2-92.3 27.3-135.1c9.2-21.8 20.5-42.4 33.8-61.6C217.2 381 177.1 466.9 176.9 562c-.2 183.4 149.8 333.5 333.1 333.5 67.2 0 129.8-20 182.2-54.4-39.8 15.4-81.8 23.2-124.9 23.2-46.7 0-92.2-9.2-135-27.3zM0 0v1080h1080V0H0zm887.3 652.2c-17.5 41.3-42.5 78.5-74.4 110.3-18.5 18.5-38.8 34.7-60.6 48.4-31.2 30.4-67.2 54.3-107.1 71.2-42.8 18.1-88.3 27.3-135.1 27.3s-92.3-9.2-135.1-27.3c-41.3-17.5-78.5-42.5-110.3-74.4s-56.9-69-74.4-110.3c-18.1-42.8-27.3-88.3-27.3-135.1s9.2-92.3 27.3-135.1c17.5-41.3 42.5-78.5 74.4-110.3 18.5-18.5 38.7-34.7 60.6-48.4 31.2-30.4 67.2-54.3 107.1-71.2 42.8-18.1 88.3-27.3 135.1-27.3s92.3 9.2 135.1 27.3c41.3 17.5 78.5 42.5 110.3 74.4 31.9 31.9 56.9 69 74.4 110.3 18.1 42.8 27.3 88.3 27.3 135.1s-9.2 92.4-27.3 135.1zM567.4 184c-67.2 0-129.9 20-182.3 54.4 39.8-15.4 81.8-23.2 124.9-23.2 46.9 0 92.3 9.2 135.1 27.3 41.3 17.5 78.5 42.5 110.3 74.4s56.9 69 74.4 110.3c18.1 42.8 27.3 88.3 27.3 135.1s-9.2 92.3-27.3 135.1c-9.2 21.8-20.5 42.4-33.8 61.7 64.3-60.8 104.5-146.8 104.5-242C900.6 333.4 751.1 184 567.4 184zm-57.3 45.2c-64.6 0-124.9 18.5-176 50.4-60.6 59.6-98.6 142.2-99.7 233.5C232.2 697.3 381 849 565.1 850.3c65.5.4 126.6-18.1 178.4-50.4 61.5-60.5 99.7-144.6 99.7-237.5 0-183.7-149.4-333.2-333.1-333.2zM683.7 738 640 784.8c-2.1 2.2-5 3.5-8.1 3.5H450.5c-2.9 0-5.7-1.1-7.8-3.2l-43.8-43.7c-2.1-2.1-3.2-4.9-3.2-7.8V371c0-3 1.3-6 3.5-8.1l46-43c2-1.9 4.7-3 7.5-3h183.7c2.9 0 5.7 1.1 7.8 3.2l38.5 38c2.1 2.1 3.3 4.9 3.3 7.9v44c0 6.1-4.9 11-11 11H509.7l.1 72.1h75.9c2.9 0 5.8 1.2 7.9 3.3l47.7 48.5c2 2.1 3.2 5 3.2 7.9l-.5 38.8c-.1 6-5 10.9-11 10.9H505.8l.7 76.5h179.3l.9 51.3c.1 2.9-1 5.6-3 7.7zm-251.4 99c-41.3-17.5-78.5-42.5-110.3-74.4-31.9-31.9-56.9-69-74.4-110.3-18.1-42.8-27.3-88.3-27.3-135.1s9.2-92.3 27.3-135.1c9.2-21.8 20.5-42.4 33.8-61.6C217.2 381 177.1 466.9 176.9 562c-.2 183.4 149.8 333.5 333.1 333.5 67.2 0 129.8-20 182.2-54.4-39.8 15.4-81.8 23.2-124.9 23.2-46.7 0-92.2-9.2-135-27.3z" class="st0"/><path d="M887.3 382c-17.5-41.3-42.5-78.5-74.4-110.3-31.9-31.9-69-56.9-110.3-74.4-42.8-18.1-88.3-27.3-135.1-27.3s-92.3 9.2-135.1 27.3c-40 16.9-76 40.9-107.1 71.2-21.8 13.7-42.1 29.9-60.6 48.4-31.9 31.9-56.9 69-74.4 110.3C172.2 470 163 515.5 163 562.3s9.2 92.3 27.3 135.1c17.5 41.3 42.5 78.5 74.4 110.3s69 56.9 110.3 74.4c42.8 18.1 88.3 27.3 135.1 27.3s92.3-9.2 135.1-27.3c40-16.9 76-40.8 107.1-71.2 21.8-13.8 42.1-29.9 60.6-48.4 31.9-31.9 56.9-69 74.4-110.3 18.1-42.8 27.3-88.3 27.3-135.1s-9.2-92.3-27.3-135.1zM510.1 895.5C326.4 895.5 177 746.1 177 562.4c0-95.2 40.2-181.2 104.4-242-13.3 19.3-24.6 39.9-33.8 61.6-18.1 42.8-27.3 88.3-27.3 135.1s9.2 92.3 27.3 135.1c17.5 41.3 42.5 78.5 74.4 110.3 31.9 31.9 69 56.9 110.3 74.4 42.8 18.1 88.3 27.3 135.1 27.3 43.1 0 85.1-7.8 124.9-23.2-52.4 34.5-115 54.5-182.2 54.5zm233.4-95.6c-51.1 31.9-111.5 50.4-176 50.4-183.7 0-333.1-149.4-333.1-333.1 0-92.9 38.2-177 99.7-237.5 51.1-31.9 111.5-50.4 176-50.4 183.7 0 333.1 149.5 333.1 333.1 0 92.9-38.2 177-99.7 237.5zm52.6-40.7c13.3-19.3 24.6-39.9 33.8-61.7 18.1-42.8 27.3-88.3 27.3-135.1S848 470 829.9 427.2c-17.5-41.3-42.5-78.5-74.4-110.3s-69-56.9-110.3-74.4c-42.8-18.1-88.3-27.3-135.1-27.3-43.2 0-85.1 7.8-124.9 23.2 52.4-34.4 115-54.4 182.3-54.4 183.7 0 333.1 149.4 333.1 333.1 0 95.3-40.2 181.3-104.5 242.1z" class="st1"/><path d="M685.8 679H506.5l-.7-76.5h127.1c6 0 10.9-4.9 11-10.9l.5-38.8c0-2.9-1.1-5.8-3.2-7.9l-47.7-48.5c-2.1-2.1-4.9-3.3-7.9-3.3h-75.9l-.1-72.1h165.2c6.1 0 11-4.9 11-11v-43.9c0-2.9-1.2-5.8-3.3-7.9l-38.5-38c-2.1-2-4.8-3.2-7.8-3.2H452.7c-2.8 0-5.5 1-7.5 3l-46 43c-2.2 2.1-3.5 5-3.5 8.1v362.6c0 3 1.1 5.7 3.2 7.8l43.8 43.7c2.1 2.1 4.8 3.2 7.8 3.2H632c3 0 6-1.3 8.1-3.5l43.7-46.8c2-2.1 3-4.8 3-7.7l-1-51.4zm-91.4-161.7 36 36.6-.3 26.1-35.7-32v-30.7zm24.2 71.2H501.5l-33.2-30.4h116.4l33.9 30.4zM492.5 679h-35.2V567l34.5 31.6.7 80.4zm179.4-271.9H509.8v-35.6h162.1v35.6zM458.1 331h177.1l26.7 26.4H506.8c-6.1 0-11 4.9-11 11V407h-.1l.1 86.1H458l.1-162.1zm168.6 443.3h-175l-32.1-32 207.1.4v31.6zm3.9-45.6-221-.4v-356l34.5-32.2-.1 156c0 3 1.1 5.7 3.2 7.8 2.1 2.1 4.9 3.2 7.8 3.2h125.4V544H454.3c-6.1 0-11 5-11 11v127c0 6.1 4.9 11 11 11h208.8l-32.5 35.7zm10.1 34.9v-25.2l31.5-34.7.5 25.6-32 34.3z" class="st1"/></svg>